<?xml version="1.0" encoding="UTF-8"?>
<svg xmlns="http://www.w3.org/2000/svg" width="657" height="1600" viewBox="0 0 657 1600">
	<path fill="#825d11" d="M280.159,1503.312h-55.412l-17.728-36.812s-196.753-94.841-196.753-95.325c0-.291.581-2.422,1.356-4.65.775-2.325,85.056-258.85,89.706-272.994l4.553-14.047,64.906-32.744,1.55-11.237c.872-6.2,5.522-38.459,10.366-71.784,4.844-33.325,77.5-537.947,78.469-544.922,1.066-6.878,36.813-284.038,38.363-295.759.484-3.778,1.55-6.297,4.263-9.687l3.681-4.553s2.616-50.859,3.1-59.772c.581-8.912.969-17.922.969-20.15v-3.875h9.009l-.775,84.572c-.387,46.403-1.066,299.731-1.356,562.844l-.581,478.369s-60.934-71.3-61.903-72.559c-1.744-2.228-1.744-3.197-.678-22.281.678-11.044,8.525-144.15,9.3-158.584,1.356-24.316,8.622-146.863,9.203-155.775.484-8.912,18.6-312.131,18.6-312.131l-2.906-2.422c-10.656-9.106-12.788-10.753-12.788-9.978,0,.387-2.422,17.341-5.328,37.587-3.003,20.247-87.866,606.825-87.963,607.212-.291.872-62.266,33.663-62.581,34.197-1.64,2.776-70.622,273.091-70.525,273.187.194.291,169.628,81.472,169.628,81.472l12.788,32.744,47.856.484v-39.428l-126.906-103.462s3.003-24.509,5.425-40.203c2.325-15.694,58.803-392.15,58.997-392.441.581-.872,39.234-17.631,39.719-17.147.291.194-.387,11.528-1.453,25.091-1.066,13.562-9.591,123.903-10.656,137.466-1.066,13.562-18.988,247.612-19.763,257.203l-1.453,17.341s77.112,90.384,77.403,90.675c.291.291,16.469,19.181,16.469,19.181v45.725h20.344l.097-46.016,17.244-20.053c24.316-28.384,76.531-89.512,76.531-89.512l-1.453-17.341c-.775-9.591-18.697-243.641-19.762-257.203-1.066-13.563-9.591-123.903-10.656-137.466-1.066-13.562-1.744-24.897-1.453-25.091.194-.291,39.719,16.856,39.719,16.856,0,0,55.606,370.45,57.641,384.012,6.781,44.95,6.2,49.212,6.2,49.212l-126.325,103.172v39.428l47.856-.484,12.788-32.744s169.434-81.181,169.628-81.375c.097-.194-70.041-272.897-70.525-273.284-.387-.388-61.419-32.744-62-33.422-.581-.484-85.638-587.741-88.544-607.987-2.906-20.247-5.328-37.2-5.328-37.587,0-.775-2.422,1.066-12.787,9.978l-2.809,2.422s17.147,290.722,18.503,312.422c.484,8.234,7.362,123.806,9.203,155.969,1.55,26.931,8.399,147.072,9.3,158.1.407,4.981,1.754,17.195,1.162,19.956-.602,2.81-63.744,74.884-63.744,74.884l-.581-477.4c-.291-262.531-.969-515.859-1.356-562.941l-.775-85.444h9.009v6.587c0,3.584.387,13.272.969,21.506.484,8.234,3.1,55.703,3.1,55.703l3.681,4.553c2.713,3.391,3.778,5.909,4.263,9.687,1.647,11.819,36.812,285.297,37.297,288.978,3.584,24.606,74.787,518.378,79.534,551.703,4.844,33.325,9.494,65.584,10.366,71.784l1.55,11.237,64.906,32.744,4.65,14.047c4.941,15.113,88.834,270.669,89.609,272.994.775,2.228,1.356,4.359,1.356,4.65,0,.484-196.753,95.325-196.753,95.325l-17.825,36.812h-55.316l-23.153,71.688h-15.016v-71.688h-20.344v71.688h-15.016l-23.153-71.688Z"/>
	<path fill="#825d11" d="M228.719,1447.9s-166.819-82.441-167.012-82.731c-.387-.291,63.453-248.387,64.906-253.909.872-3.294,1.744-4.262,4.65-5.425,1.938-.775,49.309-21.991,49.794-21.991s.678,1.066.291,2.228c-.291,1.259-39.622,253.716-39.913,254.587-.291,1.162,1.55,3.197,6.103,6.781,3.584,2.906,79.534,64.809,86.994,70.912,12.787,10.462,13.659,11.431,15.694,16.759,1.163,3.197,15.791,39.912,15.791,40.3s-4.069.775-9.106.775h-9.106l-19.084-28.287Z"/>
	<path fill="#825d11" d="M390.984,1475.412c0-.484,13.677-34.485,17.075-41.822,1.626-3.511,19.544-19.403,19.544-19.403,33.034-27.125,75.175-61.419,81.859-66.65,4.553-3.681,6.394-5.716,6.103-6.781-.291-.969-39.622-253.425-39.913-254.684-.387-1.162-.194-2.228.291-2.228s47.856,21.216,49.794,21.991c2.906,1.162,3.778,2.131,4.65,5.425,1.453,5.522,65.294,253.619,64.906,253.909-.387.387-166.334,82.247-166.334,82.247l-19.762,28.772h-9.106c-5.037,0-9.106-.387-9.106-.775Z"/>
	<path fill="#825d11" d="M278.609,1377.666v-38.459c0-22.669.387-38.362.872-38.169.484.194,38.847,42.916,38.847,42.916v39.912c0,21.991-.097,40.009-.291,40.009s-39.428-46.209-39.428-46.209Z"/>
	<path fill="#825d11" d="M338.672,1383.866v-39.912s38.362-42.722,38.847-42.916c.484-.194.872,15.5.872,38.169v38.459s-39.234,46.209-39.428,46.209-.291-18.019-.291-40.009Z"/>
	<path fill="#825d11" d="M278.609,1287.184v-38.75c0-24.703.387-38.556.969-38.169.484.291,38.75,42.916,38.75,42.916l-.194,40.009-.291,39.913-39.234-45.919Z"/>
	<path fill="#825d11" d="M338.672,1292.997v-39.816s38.266-42.625,38.75-42.916c.581-.387.969,13.466.969,38.169v38.75s-39.138,45.628-39.331,45.628-.387-17.922-.387-39.816Z"/>
	<path fill="#825d11" d="M282.291,1200.772l-3.584-4.069-.097-38.944c0-21.506.194-39.041.387-39.041.291,0,29.644,32.937,37.103,41.559l2.228,2.519v40.009c0,21.894-.097,39.913-.194,39.913-.194-.097-33.906-39.719-35.844-41.947Z"/>
	<path fill="#825d11" d="M338.672,1203v-40.203l2.228-2.519c7.459-8.622,36.812-41.559,37.103-41.559.194,0,.388,17.534.388,39.041v38.944l-3.197,3.487c-1.647,1.938-35.263,41.463-35.747,42.044-.387.484-.775-17.244-.775-39.234Z"/>
</svg>